<?xml version="1.0" encoding="UTF-8"?><svg width="400" height="200" viewBox="0 0 400 200" xmlns="http://www.w3.org/2000/svg"><rect width="400" height="200" fill="#f0f0f0" /><g transform="translate(160, 50)"><rect x="10" y="0" width="60" height="100" rx="5" ry="5" fill="#6200ee" /><rect x="20" y="15" width="40" height="5" rx="2" ry="2" fill="#ffffff" opacity="0.7" /><rect x="20" y="30" width="40" height="5" rx="2" ry="2" fill="#ffffff" opacity="0.7" /><rect x="20" y="45" width="40" height="5" rx="2" ry="2" fill="#ffffff" opacity="0.7" /><rect x="20" y="60" width="40" height="5" rx="2" ry="2" fill="#ffffff" opacity="0.7" /><rect x="20" y="75" width="25" height="5" rx="2" ry="2" fill="#ffffff" opacity="0.7" /><circle cx="75" cy="20" r="3" fill="#4caf50" /><circle cx="75" cy="35" r="3" fill="#ffeb3b" /><circle cx="75" cy="50" r="3" fill="#4caf50" /></g><line x1="100" y1="120" x2="160" y2="80" stroke="#6200ee" stroke-width="2" /><line x1="240" y1="80" x2="300" y2="120" stroke="#6200ee" stroke-width="2" /><circle cx="100" cy="120" r="6" fill="#6200ee" /><circle cx="300" cy="120" r="6" fill="#6200ee" /><text x="200" y="160" font-family="Arial, sans-serif" font-size="14" text-anchor="middle" fill="#333333">Server</text></svg>
